<svg width="155" height="24" viewBox="0 0 155 24" fill="none" xmlns="http://www.w3.org/2000/svg">
<path d="M18.8877 13.1341L13.4967 22.3669L8.10583 13.1341H18.8877ZM20.3319 12.3088H6.65579L13.4967 24L20.3319 12.3088Z" fill="#263238"/>
<path d="M28.2604 1.65038L33.6513 10.8833H22.8695L28.2604 1.65038ZM28.2604 0L21.4194 11.6912H35.1013L28.2604 0Z" fill="#263238"/>
<path d="M0.101349 0L5.83725 10.3409L12.1052 0.259661L0.101349 0Z" fill="#4CAF4F"/>
<path d="M13.4969 0.905762L19.5134 11.1889H7.46863L13.4969 0.905762Z" fill="#4CAF4F"/>
<path d="M21.0628 13.4341L27.0852 24H14.7539L20.8757 13.4341H21.0628Z" fill="#4CAF4F"/>
<path d="M22.3667 12.7935L28.2604 23.1978L34.236 12.7935H22.3667Z" fill="#4CAF4F"/>
<path d="M60.134 1.66895V22.0326H56.4152L47.5559 9.21582H47.4067V22.0326H43.1013V1.66895H46.8797L55.6695 14.4758H55.8485V1.66895H60.134Z" fill="#263238"/>
<path d="M70.5718 22.3309C69.0008 22.3309 67.6485 22.0127 66.515 21.3763C65.3881 20.7333 64.5198 19.8252 63.9099 18.6519C63.3001 17.472 62.9951 16.0766 62.9951 14.4658C62.9951 12.8948 63.3001 11.516 63.9099 10.3295C64.5198 9.1429 65.3782 8.21819 66.4852 7.55531C67.5988 6.89243 68.9047 6.56099 70.4028 6.56099C71.4104 6.56099 72.3484 6.7234 73.2167 7.04821C74.0917 7.36639 74.854 7.84698 75.5037 8.48997C76.1599 9.13296 76.6703 9.94167 77.0349 10.9161C77.3995 11.8839 77.5818 13.0174 77.5818 14.3167V15.48H64.6855V12.855H73.5946C73.5946 12.2452 73.462 11.7049 73.1968 11.2343C72.9317 10.7636 72.5638 10.3957 72.0932 10.1306C71.6291 9.85881 71.0889 9.72292 70.4724 9.72292C69.8294 9.72292 69.2593 9.87207 68.7622 10.1704C68.2717 10.462 67.8872 10.8564 67.6088 11.3536C67.3304 11.8441 67.1878 12.391 67.1812 12.9942V15.49C67.1812 16.2457 67.3204 16.8986 67.5988 17.4488C67.8839 17.999 68.2849 18.4232 68.802 18.7215C69.319 19.0198 69.9322 19.1689 70.6414 19.1689C71.1121 19.1689 71.543 19.1027 71.9341 18.9701C72.3252 18.8375 72.6599 18.6386 72.9383 18.3735C73.2167 18.1083 73.4289 17.7835 73.5747 17.3991L77.4923 17.6576C77.2934 18.5989 76.8858 19.4208 76.2693 20.1235C75.6594 20.8195 74.8706 21.3631 73.9028 21.7542C72.9416 22.1386 71.8313 22.3309 70.5718 22.3309Z" fill="#263238"/>
<path d="M83.6123 6.75985L86.4163 12.0993L89.2899 6.75985H93.6351L89.2103 14.3962L93.7544 22.0326H89.4291L86.4163 16.7528L83.4532 22.0326H79.0782L83.6123 14.3962L79.2373 6.75985H83.6123Z" fill="#263238"/>
<path d="M102.504 22.3309C100.94 22.3309 99.5943 21.9994 98.4674 21.3366C97.3472 20.6671 96.4854 19.739 95.8822 18.5525C95.2856 17.3659 94.9873 16.0004 94.9873 14.4559C94.9873 12.8915 95.2889 11.5193 95.8922 10.3394C96.502 9.15285 97.3671 8.22813 98.4873 7.56525C99.6076 6.89574 100.94 6.56099 102.484 6.56099C103.817 6.56099 104.984 6.80294 105.984 7.28684C106.985 7.77074 107.778 8.4502 108.361 9.3252C108.944 10.2002 109.266 11.2277 109.325 12.4076H105.328C105.216 11.6453 104.917 11.0321 104.433 10.5681C103.956 10.0974 103.33 9.86213 102.554 9.86213C101.898 9.86213 101.324 10.0411 100.834 10.3991C100.35 10.7504 99.9722 11.2641 99.7004 11.9403C99.4286 12.6164 99.2927 13.435 99.2927 14.3962C99.2927 15.3707 99.4253 16.1992 99.6905 16.882C99.9622 17.5648 100.343 18.0851 100.834 18.4431C101.324 18.801 101.898 18.98 102.554 18.98C103.038 18.98 103.472 18.8806 103.857 18.6817C104.248 18.4829 104.569 18.1945 104.821 17.8167C105.08 17.4322 105.249 16.9715 105.328 16.4346H109.325C109.259 17.6012 108.941 18.6287 108.371 19.517C107.807 20.3986 107.029 21.088 106.034 21.5851C105.04 22.0823 103.863 22.3309 102.504 22.3309Z" fill="#263238"/>
<path d="M118.998 22.3309C117.427 22.3309 116.074 22.0127 114.941 21.3763C113.814 20.7333 112.946 19.8252 112.336 18.6519C111.726 17.472 111.421 16.0766 111.421 14.4658C111.421 12.8948 111.726 11.516 112.336 10.3295C112.946 9.1429 113.804 8.21819 114.911 7.55531C116.025 6.89243 117.33 6.56099 118.829 6.56099C119.836 6.56099 120.774 6.7234 121.643 7.04821C122.518 7.36639 123.28 7.84698 123.929 8.48997C124.586 9.13296 125.096 9.94167 125.461 10.9161C125.825 11.8839 126.008 13.0174 126.008 14.3167V15.48H113.111V12.855H122.02C122.02 12.2452 121.888 11.7049 121.623 11.2343C121.357 10.7636 120.99 10.3957 120.519 10.1306C120.055 9.85881 119.515 9.72292 118.898 9.72292C118.255 9.72292 117.685 9.87207 117.188 10.1704C116.697 10.462 116.313 10.8564 116.035 11.3536C115.756 11.8441 115.614 12.391 115.607 12.9942V15.49C115.607 16.2457 115.746 16.8986 116.025 17.4488C116.31 17.999 116.711 18.4232 117.228 18.7215C117.745 19.0198 118.358 19.1689 119.067 19.1689C119.538 19.1689 119.969 19.1027 120.36 18.9701C120.751 18.8375 121.086 18.6386 121.364 18.3735C121.643 18.1083 121.855 17.7835 122 17.3991L125.918 17.6576C125.719 18.5989 125.312 19.4208 124.695 20.1235C124.085 20.8195 123.296 21.3631 122.329 21.7542C121.367 22.1386 120.257 22.3309 118.998 22.3309Z" fill="#263238"/>
<path d="M133.008 13.203V22.0326H128.772V6.75985H132.809V9.45446H132.988C133.326 8.5662 133.893 7.86355 134.688 7.3465C135.483 6.82283 136.448 6.56099 137.581 6.56099C138.642 6.56099 139.567 6.793 140.356 7.25701C141.144 7.72103 141.758 8.38391 142.195 9.24565C142.633 10.1008 142.851 11.1216 142.851 12.3082V22.0326H138.616V13.0638C138.622 12.1292 138.384 11.4 137.9 10.8763C137.416 10.346 136.75 10.0809 135.901 10.0809C135.331 10.0809 134.827 10.2035 134.39 10.4488C133.959 10.694 133.621 11.052 133.375 11.5226C133.137 11.9867 133.014 12.5468 133.008 13.203Z" fill="#263238"/>
<path d="M154.313 6.75985V9.94167H145.116V6.75985H154.313ZM147.204 3.10076H151.44V17.3394C151.44 17.7305 151.499 18.0354 151.619 18.2542C151.738 18.4663 151.904 18.6154 152.116 18.7016C152.335 18.7878 152.587 18.8309 152.872 18.8309C153.07 18.8309 153.269 18.8143 153.468 18.7812C153.667 18.7414 153.819 18.7116 153.926 18.6917L154.592 21.8437C154.38 21.91 154.081 21.9862 153.697 22.0724C153.312 22.1652 152.845 22.2215 152.295 22.2414C151.274 22.2812 150.379 22.1453 149.61 21.8337C148.848 21.5222 148.255 21.0383 147.83 20.382C147.406 19.7258 147.197 18.8972 147.204 17.8962V3.10076Z" fill="#263238"/>
</svg>
